{"asset":{"version":"2.0","generator":"THREE.GLTFExporter"},"scenes":[{"name":"AuxScene","nodes":[8]}],"scene":0,"nodes":[{"name":"NurbsPath008","extras":{"name":"NurbsPath.008"},"mesh":1},{"name":"NurbsPath010","extras":{"name":"NurbsPath.010"},"mesh":2},{"name":"Circle001","extras":{"name":"Circle.001"},"mesh":3},{"name":"NurbsPath007","extras":{"name":"NurbsPath.007"},"mesh":4},{"name":"NurbsPath006","extras":{"name":"NurbsPath.006"},"mesh":5},{"name":"NurbsPath009","extras":{"name":"NurbsPath.009"},"mesh":6},{"name":"NurbsPath011","extras":{"name":"NurbsPath.011"},"mesh":7},{"name":"plant001","extras":{"name":"plant.001"},"mesh":0,"children":[0,1,2,3,4,5,6]},{"name":"Scene","children":[7]}],"bufferViews":[{"buffer":0,"byteOffset":0,"byteLength":36096,"target":34962,"byteStride":12},{"buffer":0,"byteOffset":36096,"byteLength":36096,"target":34962,"byteStride":12},{"buffer":0,"byteOffset":72192,"byteLength":72144,"target":34963},{"buffer":0,"byteOffset":144336,"byteLength":24480,"target":34962,"byteStride":12},{"buffer":0,"byteOffset":168816,"byteLength":24480,"target":34962,"byteStride":12},{"buffer":0,"byteOffset":193296,"byteLength":16320,"target":34962,"byteStride":8},{"buffer":0,"byteOffset":209616,"byteLength":41424,"target":34963},{"buffer":0,"byteOffset":251040,"byteLength":24480,"target":34962,"byteStride":12},{"buffer":0,"byteOffset":275520,"byteLength":24480,"target":34962,"byteStride":12},{"buffer":0,"byteOffset":300000,"byteLength":16320,"target":34962,"byteStride":8},{"buffer":0,"byteOffset":316320,"byteLength":41424,"target":34963},{"buffer":0,"byteOffset":357744,"byteLength":384,"target":34962,"byteStride":12},{"buffer":0,"byteOffset":358128,"byteLength":384,"target":34962,"byteStride":12},{"buffer":0,"byteOffset":358512,"byteLength":256,"target":34962,"byteStride":8},{"buffer":0,"byteOffset":358768,"byteLength":360,"target":34963},{"buffer":0,"byteOffset":359128,"byteLength":24480,"target":34962,"byteStride":12},{"buffer":0,"byteOffset":383608,"byteLength":24480,"target":34962,"byteStride":12},{"buffer":0,"byteOffset":408088,"byteLength":16320,"target":34962,"byteStride":8},{"buffer":0,"byteOffset":424408,"byteLength":41424,"target":34963},{"buffer":0,"byteOffset":465832,"byteLength":24480,"target":34962,"byteStride":12},{"buffer":0,"byteOffset":490312,"byteLength":24480,"target":34962,"byteStride":12},{"buffer":0,"byteOffset":514792,"byteLength":16320,"target":34962,"byteStride":8},{"buffer":0,"byteOffset":531112,"byteLength":41424,"target":34963},{"buffer":0,"byteOffset":572536,"byteLength":24480,"target":34962,"byteStride":12},{"buffer":0,"byteOffset":597016,"byteLength":24480,"target":34962,"byteStride":12},{"buffer":0,"byteOffset":621496,"byteLength":16320,"target":34962,"byteStride":8},{"buffer":0,"byteOffset":637816,"byteLength":41424,"target":34963},{"buffer":0,"byteOffset":679240,"byteLength":24480,"target":34962,"byteStride":12},{"buffer":0,"byteOffset":703720,"byteLength":24480,"target":34962,"byteStride":12},{"buffer":0,"byteOffset":728200,"byteLength":16320,"target":34962,"byteStride":8},{"buffer":0,"byteOffset":744520,"byteLength":41424,"target":34963}],"buffers":[{"byteLength":785944,"uri":"data:application/octet-stream;base64,"}],"accessors":[{"bufferView":0,"componentType":5126,"count":3008,"max":[0.5098249316215515,0.3995835483074188,0.5098252296447754],"min":[-0.509824812412262,-0.381965309381485,-0.5098245143890381],"type":"VEC3"},{"bufferView":1,"componentType":5126,"count":3008,"max":[0.9999685287475586,0.9998720288276672,0.9999359846115112],"min":[-0.9999685287475586,-0.9999359846115112,-0.9999359846115112],"type":"VEC3"},{"bufferView":2,"componentType":5125,"count":18036,"max":[3007],"min":[0],"type":"SCALAR"},{"bufferView":3,"componentType":5126,"count":2040,"max":[0.668322741985321,1.719718098640442,0.6093244552612305],"min":[-0.11027099192142487,0.16632497310638428,-0.026602983474731445],"type":"VEC3"},{"bufferView":4,"componentType":5126,"count":2040,"max":[0.9863348603248596,0.9147188663482666,0.9982392191886902],"min":[-0.9960911273956299,-0.962744414806366,-0.9998375177383423],"type":"VEC3"},{"bufferView":5,"componentType":5126,"count":2040,"max":[1,1],"min":[0,0],"type":"VEC2"},{"bufferView":6,"componentType":5125,"count":10356,"max":[2039],"min":[0],"type":"SCALAR"},{"bufferView":7,"componentType":5126,"count":2040,"max":[0.07247230410575867,1.7149587869644165,-0.05674010515213013],"min":[-0.22223606705665588,0.16811764240264893,-1.0073635578155518],"type":"VEC3"},{"bufferView":8,"componentType":5126,"count":2040,"max":[0.9999359846115112,0.9216302037239075,0.9962887763977051],"min":[-0.9996696710586548,-0.965430498123169,-0.9892576336860657],"type":"VEC3"},{"bufferView":9,"componentType":5126,"count":2040,"max":[1,1],"min":[0,0],"type":"VEC2"},{"bufferView":10,"componentType":5125,"count":10356,"max":[2039],"min":[0],"type":"SCALAR"},{"bufferView":11,"componentType":5126,"count":32,"max":[0.46004557609558105,0.18354034423828125,0.4534268379211426],"min":[-0.4575057029724121,0.18354034423828125,-0.4641244411468506],"type":"VEC3"},{"bufferView":12,"componentType":5126,"count":32,"max":[0,1,0],"min":[0,1,0],"type":"VEC3"},{"bufferView":13,"componentType":5126,"count":32,"max":[0,1],"min":[0,1],"type":"VEC2"},{"bufferView":14,"componentType":5125,"count":90,"max":[31],"min":[0],"type":"SCALAR"},{"bufferView":15,"componentType":5126,"count":2040,"max":[-0.08330857753753662,1.2914851903915405,0.743006706237793],"min":[-0.49606937170028687,0.14193236827850342,0.10673737525939941],"type":"VEC3"},{"bufferView":16,"componentType":5126,"count":2040,"max":[0.9895464181900024,0.9222790598869324,0.9888302683830261],"min":[-0.998717725276947,-0.9663237929344177,-0.9941272139549255],"type":"VEC3"},{"bufferView":17,"componentType":5126,"count":2040,"max":[1,1],"min":[0,0],"type":"VEC2"},{"bufferView":18,"componentType":5125,"count":10356,"max":[2039],"min":[0],"type":"SCALAR"},{"bufferView":19,"componentType":5126,"count":2040,"max":[0.7447737455368042,1.1244871616363525,0.23845916986465454],"min":[0.1814967542886734,0.14817214012145996,-0.052002906799316406],"type":"VEC3"},{"bufferView":20,"componentType":5126,"count":2040,"max":[0.9861919283866882,0.9220086932182312,0.998717725276947],"min":[-0.9949480295181274,-0.96620112657547,-0.998717725276947],"type":"VEC3"},{"bufferView":21,"componentType":5126,"count":2040,"max":[1,1],"min":[0,0],"type":"VEC2"},{"bufferView":22,"componentType":5125,"count":10356,"max":[2039],"min":[0],"type":"SCALAR"},{"bufferView":23,"componentType":5126,"count":2040,"max":[-0.03390204906463623,1.866129994392395,0.16345825791358948],"min":[-1.2194308042526245,0.16789531707763672,-0.2571597099304199],"type":"VEC3"},{"bufferView":24,"componentType":5126,"count":2040,"max":[0.9845560789108276,0.9484199285507202,0.9997074007987976],"min":[-0.9860566854476929,-0.96513831615448,-0.9999359846115112],"type":"VEC3"},{"bufferView":25,"componentType":5126,"count":2040,"max":[1,1],"min":[0,0],"type":"VEC2"},{"bufferView":26,"componentType":5125,"count":10356,"max":[2039],"min":[0],"type":"SCALAR"},{"bufferView":27,"componentType":5126,"count":2040,"max":[0.7947559952735901,1.5510427951812744,0.01532164216041565],"min":[0.007458940148353577,0.16888397932052612,-0.30202794075012207],"type":"VEC3"},{"bufferView":28,"componentType":5126,"count":2040,"max":[0.994526207447052,0.9102081656455994,0.9977479577064514],"min":[-0.9968563914299011,-0.9533586502075195,-0.9999685287475586],"type":"VEC3"},{"bufferView":29,"componentType":5126,"count":2040,"max":[1,1],"min":[0,0],"type":"VEC2"},{"bufferView":30,"componentType":5125,"count":10356,"max":[2039],"min":[0],"type":"SCALAR"}],"materials":[{"pbrMetallicRoughness":{"baseColorFactor":[0.40784313725490196,0.26666666666666666,0.25098039215686274,0],"metallicFactor":0,"roughnessFactor":0.10909092426300049},"alphaMode":"BLEND","name":"Material.028"},{"pbrMetallicRoughness":{"baseColorFactor":[0.2,0.5176470588235295,0.12156862745098039,1],"metallicFactor":0,"roughnessFactor":0.3954545557498932},"alphaMode":"BLEND","name":"Material.005"},{"pbrMetallicRoughness":{"baseColorFactor":[0.2,0.5176470588235295,0.12156862745098039,1],"metallicFactor":0,"roughnessFactor":0.3954545557498932},"alphaMode":"BLEND","name":"Material.003"},{"pbrMetallicRoughness":{"baseColorFactor":[0.09019607843137255,0.027450980392156862,0,1],"metallicFactor":0,"roughnessFactor":0.5},"alphaMode":"BLEND","name":"Material.030"},{"pbrMetallicRoughness":{"baseColorFactor":[0.2,0.5176470588235295,0.12156862745098039,1],"metallicFactor":0,"roughnessFactor":0.3954545557498932},"alphaMode":"BLEND","name":"Material.006"},{"pbrMetallicRoughness":{"baseColorFactor":[0.2,0.5176470588235295,0.12156862745098039,1],"metallicFactor":0,"roughnessFactor":0.3954545557498932},"alphaMode":"BLEND","name":"Material.007"},{"pbrMetallicRoughness":{"baseColorFactor":[0.2,0.5176470588235295,0.12156862745098039,1],"metallicFactor":0,"roughnessFactor":0.3954545557498932},"alphaMode":"BLEND","name":"Material.004"},{"pbrMetallicRoughness":{"baseColorFactor":[0.2,0.5176470588235295,0.12156862745098039,1],"metallicFactor":0,"roughnessFactor":0.3954545557498932},"alphaMode":"BLEND","name":"Material.002"}],"meshes":[{"primitives":[{"mode":4,"attributes":{"POSITION":0,"NORMAL":1},"indices":2,"material":0}]},{"primitives":[{"mode":4,"attributes":{"POSITION":3,"NORMAL":4,"TEXCOORD_0":5},"indices":6,"material":1}]},{"primitives":[{"mode":4,"attributes":{"POSITION":7,"NORMAL":8,"TEXCOORD_0":9},"indices":10,"material":2}]},{"primitives":[{"mode":4,"attributes":{"POSITION":11,"NORMAL":12,"TEXCOORD_0":13},"indices":14,"material":3}]},{"primitives":[{"mode":4,"attributes":{"POSITION":15,"NORMAL":16,"TEXCOORD_0":17},"indices":18,"material":4}]},{"primitives":[{"mode":4,"attributes":{"POSITION":19,"NORMAL":20,"TEXCOORD_0":21},"indices":22,"material":5}]},{"primitives":[{"mode":4,"attributes":{"POSITION":23,"NORMAL":24,"TEXCOORD_0":25},"indices":26,"material":6}]},{"primitives":[{"mode":4,"attributes":{"POSITION":27,"NORMAL":28,"TEXCOORD_0":29},"indices":30,"material":7}]}]}